<svg id="Name_Occupation" data-name="Name &amp; Occupation" xmlns="http://www.w3.org/2000/svg" viewBox="0 0 752.15 174.94">
  <path d="M5.23,132.54H7.64l10.15,22.32L28,132.54h2.41v30.31H27.89V138.3L18.82,158h-2l-9-19.7v24.51H5.23Z" fill="#fff"/>
  <path d="M36,153.61V148c0-5.81,3.32-9.55,9.16-9.55,5.68,0,9.12,3.74,9.12,9.55v5.63c0,5.93-3.44,9.67-9.12,9.67C39.29,163.28,36,159.54,36,153.61Zm9.16,7.4c4.09,0,6.67-2.63,6.67-7.14v-6.15c0-4.39-2.58-7-6.67-7s-6.75,2.62-6.75,7v6.15C38.38,158.38,40.92,161,45.13,161Z" fill="#fff"/>
  <path d="M61.69,158.9v3.95H59.37v-32.2h2.4v12.08a7.67,7.67,0,0,1,7.36-4.39c5.37,0,8.55,3.57,8.55,9.46v5.9c0,6.06-3.18,9.58-8.55,9.58C65.3,163.28,62.72,161.31,61.69,158.9Zm6.79,2.28c4.34,0,6.75-2.88,6.75-7.74v-5.33c0-4.73-2.36-7.66-6.75-7.66-4.13,0-6.71,2.71-6.71,7.35v5.64C61.77,158.34,64.27,161.18,68.48,161.18Z" fill="#fff"/>
  <path d="M83.83,131.25a1.65,1.65,0,0,1,1.68,1.68,1.68,1.68,0,0,1-3.35,0A1.65,1.65,0,0,1,83.83,131.25Zm-1.24,7.44H85v24.16H82.59Z" fill="#fff"/>
  <path d="M90.63,130.22h2.45v32.63H90.63Z" fill="#fff"/>
  <path d="M98.19,153.74v-5.81c0-6.06,3.36-9.63,9.16-9.63s9.12,3.49,9.12,9.42v3.61H100.6v2.84c0,4.38,2.67,7,6.75,7s6.67-2.63,6.67-6v-.26h2.45v.17c0,4.43-3.4,8.17-9.12,8.17S98.19,159.8,98.19,153.74Zm15.83-4.3v-1.85c0-4.73-2.5-7.14-6.67-7.14s-6.75,2.63-6.75,7.1v1.89Z" fill="#fff"/>
  <path d="M139.43,132.54h2.88l10.58,30.31h-2.67l-2.62-7.69H134l-2.71,7.69h-2.62ZM146.91,153l-6-17.58L134.7,153Z" fill="#fff"/>
  <path d="M156.5,138.69h2.32v4.13c1-2.41,3.61-4.43,7.44-4.43,5.51,0,8.56,3.7,8.56,10.28v5c0,5.94-3.18,9.51-8.56,9.51-3.83,0-6.36-2-7.35-4.39v12.56H156.5Zm9.12,22.36c4.34,0,6.75-2.88,6.75-7.66v-5.11c0-4.9-2.41-7.78-6.75-7.78-4.13,0-6.71,2.75-6.71,7.48v5.41C158.91,158.17,161.4,161.05,165.62,161.05Z" fill="#fff"/>
  <path d="M180.15,138.69h2.32v4.13c1-2.41,3.61-4.43,7.44-4.43,5.5,0,8.56,3.7,8.56,10.28v5c0,5.94-3.18,9.51-8.56,9.51-3.83,0-6.36-2-7.35-4.39v12.56h-2.41Zm9.12,22.36c4.34,0,6.75-2.88,6.75-7.66v-5.11c0-4.9-2.41-7.78-6.75-7.78-4.13,0-6.71,2.75-6.71,7.48v5.41C182.56,158.17,185.05,161.05,189.27,161.05Z" fill="#fff"/>
  <path d="M203.8,130.22h2.45v32.63H203.8Z" fill="#fff"/>
  <path d="M213,131.25a1.65,1.65,0,0,1,1.68,1.68,1.68,1.68,0,0,1-3.35,0A1.65,1.65,0,0,1,213,131.25Zm-1.24,7.44h2.45v24.16H211.8Z" fill="#fff"/>
  <path d="M219.19,153.74v-5.68c0-5.93,3.36-9.67,9.16-9.67s9.12,3.48,9.12,9.5V148H235v-.09c0-4.64-2.37-7.31-6.67-7.31s-6.75,2.62-6.75,7.61v5.72c0,4.43,2.37,7.22,6.75,7.22s6.67-2.66,6.67-7.26v-.09h2.45v.09c0,5.89-3.36,9.41-9.12,9.41S219.19,159.59,219.19,153.74Z" fill="#fff"/>
  <path d="M241.94,153.7v-5.9c0-6,3.27-9.46,8.51-9.46,3.87,0,6.41,2,7.44,4.35v-4h2.32v24.16h-2.32V158.9c-1,2.36-3.57,4.38-7.44,4.38C245.12,163.28,241.94,159.72,241.94,153.7Zm9.16,7.48c4.26,0,6.66-2.88,6.66-7.79V147.8c0-4.64-2.53-7.35-6.66-7.35-4.34,0-6.71,2.84-6.71,7.61v5.33C244.39,158.34,246.76,161.18,251.1,161.18Z" fill="#fff"/>
  <path d="M266.15,153.82v-13H263.4v-1.72c3.18,0,3.52-1,3.52-5.12h1.68v4.69h6.79v2.15H268.6v12.73c0,6.53,1,7.65,6.92,7.26v2.24C268,163.89,266.15,161.09,266.15,153.82Z" fill="#fff"/>
  <path d="M280.81,131.25a1.65,1.65,0,0,1,1.68,1.68,1.68,1.68,0,0,1-3.36,0A1.65,1.65,0,0,1,280.81,131.25Zm-1.25,7.44H282v24.16h-2.45Z" fill="#fff"/>
  <path d="M287,153.61V148c0-5.81,3.31-9.55,9.16-9.55,5.67,0,9.11,3.74,9.11,9.55v5.63c0,5.93-3.44,9.67-9.11,9.67C290.27,163.28,287,159.54,287,153.61Zm9.16,7.4c4.08,0,6.66-2.63,6.66-7.14v-6.15c0-4.39-2.58-7-6.66-7s-6.75,2.62-6.75,7v6.15C289.37,158.38,291.9,161,296.12,161Z" fill="#fff"/>
  <path d="M310.35,138.69h2.32v4a7.8,7.8,0,0,1,7.44-4.39c5.38,0,8.56,3.57,8.56,9.46v15h-2.45V148.06c0-4.68-2.15-7.61-6.75-7.61-4.43,0-6.71,2.67-6.71,7.53v14.87h-2.41Z" fill="#fff"/>
  <path d="M332.93,154.86h2.4c0,3.74,2.54,6.27,6.8,6.27,3.78,0,6.45-1.8,6.45-4.77,0-6.49-15.05-1.85-15.05-11.35,0-4.17,3.48-6.71,8.38-6.71,5.85,0,8.9,3,8.9,8.17h-2.32c0-3.95-2.23-6-6.58-6-3.87,0-6,1.94-6,4.52,0,7.35,15.05,2.36,15.05,11.43,0,4-3,6.88-8.86,6.88S332.93,159.84,332.93,154.86Z" fill="#fff"/>
  <path d="M365.17,130.22h2.46v34.83h-2.46Z" fill="#fff"/>
  <path d="M380.7,132.54h2.58l7,25.8,6.44-25.8H399l6.45,25.8,7-25.8h2.62l-8.34,30.31H404.3l-6.45-25.45-6.45,25.45H389Z" fill="#fff"/>
  <path d="M415.79,153.74v-5.81c0-6.06,3.35-9.63,9.15-9.63s9.12,3.49,9.12,9.42v3.61H418.19v2.84c0,4.38,2.67,7,6.75,7s6.67-2.63,6.67-6v-.26h2.45v.17c0,4.43-3.4,8.17-9.12,8.17S415.79,159.8,415.79,153.74Zm15.82-4.3v-1.85c0-4.73-2.49-7.14-6.67-7.14s-6.75,2.63-6.75,7.1v1.89Z" fill="#fff"/>
  <path d="M441.28,158.9v3.95H439v-32.2h2.41v12.08a7.65,7.65,0,0,1,7.35-4.39c5.38,0,8.56,3.57,8.56,9.46v5.9c0,6.06-3.18,9.58-8.56,9.58C444.9,163.28,442.31,161.31,441.28,158.9Zm6.8,2.28c4.34,0,6.75-2.88,6.75-7.74v-5.33c0-4.73-2.37-7.66-6.75-7.66-4.13,0-6.71,2.71-6.71,7.35v5.64C441.37,158.34,443.86,161.18,448.08,161.18Z" fill="#fff"/>
  <path d="M471,154.13a6.81,6.81,0,0,1,5.24-6.88,6.77,6.77,0,0,1-4.73-6.88c0-5,4.09-8.35,10-8.35s10,3.62,10,10.15h-2.58c0-5.24-3-7.78-7.35-7.78s-7.52,2.19-7.52,5.93c0,3.53,2.28,5.89,6.23,5.89h4.13v2.28H480.2c-3.66,0-6.67,1.81-6.67,5.59,0,4.52,3.4,6.84,8,6.84s8-2.54,8-8.26v-6.45h6.19v2.37H492v4.3c0,7-4.64,10.49-10.54,10.49C475,163.37,471,160,471,154.13Z" fill="#fff"/>
  <path d="M510.51,132.54h2.41l10.15,22.32,10.23-22.32h2.41v30.31h-2.54V138.3L524.1,158h-2l-9-19.7v24.51h-2.54Z" fill="#fff"/>
  <path d="M541.26,153.74v-5.81c0-6.06,3.35-9.63,9.16-9.63s9.11,3.49,9.11,9.42v3.61H543.66v2.84c0,4.38,2.67,7,6.76,7s6.66-2.63,6.66-6v-.26h2.45v.17c0,4.43-3.4,8.17-9.11,8.17S541.26,159.8,541.26,153.74Zm15.82-4.3v-1.85c0-4.73-2.49-7.14-6.66-7.14s-6.76,2.63-6.76,7.1v1.89Z" fill="#fff"/>
  <path d="M563.79,153.7v-5.9c0-5.89,3.18-9.46,8.55-9.46,3.83,0,6.37,2,7.31,4.39V130.65h2.46v32.2h-2.33V158.9c-1,2.41-3.61,4.38-7.44,4.38C567,163.28,563.79,159.76,563.79,153.7Zm9.2,7.48c4.21,0,6.66-2.84,6.66-7.74V147.8c0-4.64-2.53-7.35-6.66-7.35-4.39,0-6.75,2.93-6.75,7.66v5.33C566.24,158.3,568.65,161.18,573,161.18Z" fill="#fff"/>
  <path d="M588.9,131.25a1.65,1.65,0,0,1,1.68,1.68,1.68,1.68,0,0,1-3.36,0A1.65,1.65,0,0,1,588.9,131.25Zm-1.25,7.44h2.45v24.16h-2.45Z" fill="#fff"/>
  <path d="M595.05,153.7v-5.9c0-6,3.27-9.46,8.51-9.46,3.87,0,6.41,2,7.44,4.35v-4h2.32v24.16H611V158.9c-1,2.36-3.57,4.38-7.44,4.38C598.23,163.28,595.05,159.72,595.05,153.7Zm9.16,7.48c4.25,0,6.66-2.88,6.66-7.79V147.8c0-4.64-2.53-7.35-6.66-7.35-4.35,0-6.71,2.84-6.71,7.61v5.33C597.5,158.34,599.86,161.18,604.21,161.18Z" fill="#fff"/>
  <path d="M629,132.54h9.54c6,0,10.15,3.74,10.15,11.14v7.91c0,7.35-4.17,11.26-10.15,11.26H629Zm9.28,27.86c4.6,0,7.87-2.75,7.87-9.33v-6.92c0-6.54-3.27-9.12-7.87-9.12h-6.75V160.4Z" fill="#fff"/>
  <path d="M653.36,153.74v-5.81c0-6.06,3.35-9.63,9.15-9.63s9.12,3.49,9.12,9.42v3.61H655.76v2.84c0,4.38,2.67,7,6.75,7s6.67-2.63,6.67-6v-.26h2.45v.17c0,4.43-3.4,8.17-9.12,8.17S653.36,159.8,653.36,153.74Zm15.82-4.3v-1.85c0-4.73-2.5-7.14-6.67-7.14s-6.75,2.63-6.75,7.1v1.89Z" fill="#fff"/>
  <path d="M675.46,154.86h2.4c0,3.74,2.54,6.27,6.8,6.27,3.78,0,6.45-1.8,6.45-4.77,0-6.49-15.05-1.85-15.05-11.35,0-4.17,3.48-6.71,8.38-6.71,5.85,0,8.9,3,8.9,8.17H691c0-3.95-2.23-6-6.58-6-3.87,0-6,1.94-6,4.52,0,7.35,15,2.36,15,11.43,0,4-3,6.88-8.86,6.88S675.46,159.84,675.46,154.86Z" fill="#fff"/>
  <path d="M699.28,131.25a1.65,1.65,0,0,1,1.68,1.68,1.68,1.68,0,0,1-3.36,0A1.65,1.65,0,0,1,699.28,131.25ZM698,138.69h2.45v24.16H698Z" fill="#fff"/>
  <path d="M705.73,164.7h2.36c0,2.71,1.51,5.25,6.54,5.25s6.62-2.28,6.62-6.58V158.9c-1,2.45-3.44,4.38-7.31,4.38-5.33,0-8.51-3.56-8.51-9.58v-5.9c0-5.84,3.13-9.41,8.3-9.41,3.86,0,6.66,1.8,7.65,4.3v-4h2.32V163c0,5.85-2,9-9.07,9S705.73,168.49,705.73,164.7Zm8.85-3.44c4.13,0,6.67-2.71,6.67-7.44v-6.36c0-4.43-2.58-7-6.67-7-4.34,0-6.7,2.84-6.7,7.61v5.42C707.88,158.43,710.24,161.26,714.58,161.26Z" fill="#fff"/>
  <path d="M729.46,138.69h2.33v4a7.78,7.78,0,0,1,7.43-4.39c5.38,0,8.56,3.57,8.56,9.46v15h-2.45V148.06c0-4.68-2.15-7.61-6.75-7.61-4.43,0-6.71,2.67-6.71,7.53v14.87h-2.41Z" fill="#fff"/>
  <path d="M20,33.66H2.4v-16H54.24v16H36.6V102.3H20Z" fill="#fff"/>
  <path d="M70.44,7.62a9.55,9.55,0,0,1,9.6,9.6,9.6,9.6,0,0,1-19.2,0A9.63,9.63,0,0,1,70.44,7.62ZM62.52,34.86H78.24V102.3H62.52Z" fill="#fff"/>
  <path d="M106.92,95v7.32H92.16V11.7h15.72V41s4.56-6.84,15.12-6.84c12.24,0,20.28,7.56,20.28,24.72V78.54c0,17.28-8,24.84-20.28,24.84C113.16,103.38,107.88,97.26,106.92,95Zm10.68-5.52c5.76,0,9.72-3.84,9.72-12.12V60.18c0-8.16-3.84-12-9.72-12-5.64,0-9.72,3.6-9.72,11.64V77.34C107.88,85.62,111.84,89.46,117.6,89.46Z" fill="#fff"/>
  <path d="M152.64,77.1V60.66C152.64,44.22,162,34,178.32,34c16,0,25.44,9.48,25.44,26v13.2H168.48v7.32a9.93,9.93,0,0,0,9.84,10.08c5.28,0,9.6-3,9.6-8.52V80.7h15.84v.48c0,12.36-9.48,22.32-25.44,22.32C162,103.5,152.64,93.3,152.64,77.1Zm35.28-14.88V59c0-9-3.72-12-9.6-12-5.64,0-9.84,3.12-9.84,10.32v4.92Z" fill="#fff"/>
  <path d="M217.56,77.34V48.66H211l-.12-12.72c8.88,0,11.88-3.72,11.88-14.76h10.56V34.86h12.48v13.8H233.28v29c0,9.6,2.88,12.6,12.72,11.16v14C225.24,105.3,217.56,97.26,217.56,77.34Z" fill="#fff"/>
  <path d="M302.51,17.7h18.12l24.48,84.6H328.19l-4.44-16.68h-24.6l-4.68,16.68H277.68Zm17.76,53.64-8.64-33.12-9,33.12Z" fill="#fff"/>
  <path d="M352.07,11.7h15.84V62.22h5.28l13.56-27.36h18l-18.48,33.6,18.6,33.84h-18L373.19,75.18h-5.28V102.3H352.07Z" fill="#fff"/>
  <path d="M429.47,102.18,408.59,34.86h16.92l12,44.88,12-44.88h16.92l-28.32,91.08H422Z" fill="#fff"/>
  <path d="M472.07,77.46V34.86h15.84V79.74c0,7,5.28,9.72,9.84,9.72a9.42,9.42,0,0,0,9.6-9.72V34.86h16v42.6c0,16-10,26-25.56,26C481.55,103.5,472.07,93.42,472.07,77.46Z" fill="#fff"/>
  <path d="M535.19,34.86H550V44c1.92-7.44,10.2-10.8,17.88-9.84V49.62c-12.12-1-16.92,4.8-16.92,15.6V102.3H535.19Z" fill="#fff"/>
  <path d="M573.83,77.1V60.66c0-16.44,9.36-26.64,25.68-26.64,16,0,25.44,9.48,25.44,26v13.2H589.67v7.32a9.93,9.93,0,0,0,9.84,10.08c5.28,0,9.6-3,9.6-8.52V80.7H625v.48c0,12.36-9.48,22.32-25.44,22.32C583.19,103.5,573.83,93.3,573.83,77.1Zm35.28-14.88V59c0-9-3.72-12-9.6-12-5.64,0-9.84,3.12-9.84,10.32v4.92Z" fill="#fff"/>
  <path d="M635.75,11.7h15.84V62.22h5.28l13.56-27.36h18L670,68.46l18.6,33.84h-18L656.87,75.18h-5.28V102.3H635.75Z" fill="#fff"/>
  <path d="M699,11.22h15.84V102.3H699Z" fill="#fff"/>
  <path d="M737.15,7.62a9.55,9.55,0,0,1,9.6,9.6,9.6,9.6,0,0,1-19.2,0A9.63,9.63,0,0,1,737.15,7.62Zm-7.92,27.24H745V102.3H729.23Z" fill="#fff"/>
</svg>
